<svg width="130" height="44" viewBox="10 3 120 50" fill="none" xmlns="http://www.w3.org/2000/svg">
<path d="M6.93839 34.7021L11.238 7.24015C11.2974 6.80425 11.7135 6.50704 12.1494 6.58629C12.3872 6.62592 12.6051 6.78443 12.724 7.00238L17.1623 15.2846L18.9258 11.9162C19.1239 11.5199 19.5994 11.3812 19.9957 11.5794C20.1344 11.6586 20.2533 11.7775 20.3325 11.9162L32.3001 34.7021H6.93839Z" fill="#FFA000"/>
<path d="M21.7789 24.0027L17.1623 15.2648L6.93839 34.7021L21.7789 24.0027Z" fill="#F57C00"/>
<path d="M32.3001 34.7021L29.011 14.3533C28.9317 13.9174 28.5355 13.64 28.0996 13.6994C27.941 13.7192 27.7825 13.7985 27.6636 13.9174L6.93839 34.7021L18.4106 41.1416C19.1239 41.5378 20.0155 41.5378 20.7288 41.1416L32.3001 34.7021Z" fill="#FFCA28"/>
<path d="M29.0308 14.3731C28.9516 13.9372 28.5553 13.6598 28.1194 13.7193C27.9609 13.7391 27.8024 13.8183 27.6835 13.9372L23.5622 18.0585L20.3325 11.8964C20.1344 11.5001 19.6589 11.3614 19.2626 11.5595C19.1239 11.6388 19.005 11.7577 18.9258 11.8964L17.1623 15.2647L12.724 6.98256C12.5259 6.60609 12.0305 6.44758 11.6541 6.66553C11.4361 6.78442 11.2776 7.00237 11.238 7.24014L6.93839 34.7021H6.91858L6.93839 34.7219L7.05728 34.7814L23.5622 18.2566L27.6835 14.1353C28.0005 13.8183 28.4958 13.8183 28.8129 14.1353C28.9317 14.2542 29.011 14.3929 29.0308 14.5713L32.2803 34.7219L32.3199 34.7021L29.0308 14.3731ZM6.97802 34.6625L11.238 7.43827C11.2974 7.00237 11.7135 6.70516 12.1494 6.78442C12.3872 6.82404 12.6051 6.98255 12.724 7.20051L17.1623 15.4827L18.9258 12.1143C19.1239 11.7181 19.5994 11.5794 19.9957 11.7775C20.1344 11.8568 20.2533 11.9756 20.3325 12.1143L23.5028 18.1377L6.97802 34.6625Z" fill="white" fill-opacity="0.2"/>
<path opacity="0.2" d="M20.7288 40.9435C20.0155 41.3398 19.1239 41.3398 18.4106 40.9435L6.9582 34.5238L6.93839 34.7021L18.4106 41.1416C19.1239 41.5379 20.0155 41.5379 20.7288 41.1416L32.3001 34.7021L32.2803 34.5238L20.7288 40.9435Z" fill="#A52714"/>
<path d="M29.0308 14.3731C28.9515 13.9372 28.5553 13.6598 28.1194 13.7193C27.9609 13.7391 27.8023 13.8183 27.6835 13.9372L23.5622 18.0585L20.3325 11.8964C20.1344 11.5001 19.6589 11.3614 19.2626 11.5595C19.1239 11.6388 19.005 11.7577 18.9258 11.8964L17.1623 15.2647L12.724 6.98255C12.5259 6.60609 12.0305 6.44758 11.6541 6.66553C11.4361 6.78442 11.2776 7.00237 11.238 7.24014L6.93839 34.7021L18.4106 41.1416C19.1239 41.5379 20.0155 41.5379 20.7288 41.1416L32.3001 34.7021L29.0308 14.3731Z" fill="url(#paint0_linear_1784_97)"/>
<g opacity="0.54">
<path d="M44.9809 33.9096H42.6429V15.7601H53.2433V17.9991H44.9809V23.9631H52.4507V26.1426H45.0007V33.9096H44.9809Z" fill="white"/>
<path d="M57.2655 18.3755C56.9484 18.6925 56.5522 18.851 56.0964 18.851C55.6407 18.851 55.2445 18.6925 54.9274 18.3755C54.6104 18.0584 54.4519 17.6622 54.4519 17.2064C54.4519 16.7507 54.6104 16.3544 54.9274 16.0374C55.2445 15.7204 55.6407 15.5619 56.0964 15.5619C56.5522 15.5619 56.9484 15.7204 57.2655 16.0374C57.5825 16.3544 57.741 16.7507 57.741 17.2064C57.741 17.6622 57.5825 18.0386 57.2655 18.3755ZM57.2655 33.9095H54.9274V21.4862H57.2655V33.9095Z" fill="white"/>
<path d="M62.1397 33.9096H59.8016V21.4863H62.0406V23.5073H62.1397C62.3774 22.8336 62.853 22.2788 63.6059 21.8429C64.339 21.407 65.0523 21.1891 65.7458 21.1891C66.4393 21.1891 67.0139 21.2882 67.4894 21.4863L66.5978 23.6658C66.3006 23.5469 65.8845 23.4875 65.3495 23.4875C64.4975 23.4875 63.7644 23.8243 63.1105 24.498C62.4567 25.1717 62.1397 26.0435 62.1397 27.1134V33.9096Z" fill="white"/>
<path d="M73.1165 34.3256C71.2342 34.3256 69.7086 33.6916 68.5396 32.4433C67.3705 31.1951 66.7761 29.61 66.7761 27.7078C66.7761 25.9048 67.3507 24.3395 68.4801 23.0318C69.6293 21.724 71.0757 21.0702 72.859 21.0702C74.7017 21.0702 76.1679 21.6646 77.2775 22.8733C78.387 24.0819 78.9418 25.6868 78.9418 27.688L78.922 28.1239H69.1142C69.1736 29.3722 69.6095 30.3629 70.3624 31.096C71.1352 31.8291 72.0268 32.1858 73.0571 32.1858C74.7215 32.1858 75.8707 31.4725 76.4651 30.0459L78.5455 30.9177C78.1493 31.8885 77.4756 32.6811 76.5443 33.335C75.6131 33.9888 74.4639 34.3256 73.1165 34.3256ZM76.4651 26.202C76.4056 25.4887 76.0886 24.815 75.4942 24.181C74.8998 23.5469 74.0082 23.2101 72.8193 23.2101C71.9475 23.2101 71.2144 23.4875 70.5804 24.0225C69.9463 24.5574 69.5104 25.2905 69.2727 26.202H76.4651Z" fill="white"/>
<path d="M87.1447 34.3257C86.1937 34.3257 85.3417 34.1276 84.5887 33.7115C83.8358 33.3152 83.281 32.8 82.9046 32.1858H82.8055V33.9096H80.5665V15.7601H82.9046V21.4863L82.8055 23.2101H82.9046C83.281 22.5959 83.8358 22.1006 84.5887 21.6845C85.3417 21.2882 86.1937 21.0702 87.1447 21.0702C88.7496 21.0702 90.1366 21.7043 91.3056 22.9724C92.4746 24.2405 93.0492 25.8057 93.0492 27.6881C93.0492 29.5704 92.4746 31.1357 91.3056 32.4037C90.1366 33.6916 88.7496 34.3257 87.1447 34.3257ZM86.7484 32.1858C87.8382 32.1858 88.7695 31.7697 89.5422 30.9573C90.3149 30.145 90.7112 29.0552 90.7112 27.7079C90.7112 26.3605 90.3149 25.2708 89.5422 24.4584C88.7695 23.646 87.8382 23.2299 86.7484 23.2299C85.6587 23.2299 84.7076 23.6262 83.9547 24.4386C83.2018 25.251 82.8055 26.3407 82.8055 27.7079C82.8055 29.075 83.182 30.1648 83.9547 30.9772C84.7274 31.7895 85.6587 32.1858 86.7484 32.1858Z" fill="white"/>
<path d="M98.8547 34.3256C97.5272 34.3256 96.4374 33.9492 95.5458 33.1764C94.6542 32.4235 94.2183 31.413 94.2183 30.1647C94.2183 28.8174 94.7334 27.7475 95.7836 26.9747C96.8337 26.202 98.1216 25.8255 99.6671 25.8255C101.034 25.8255 102.164 26.0831 103.035 26.5784V26.2218C103.035 25.3103 102.718 24.5772 102.104 24.0225C101.47 23.4677 100.717 23.1903 99.8058 23.1903C99.1321 23.1903 98.5179 23.3488 97.9631 23.6658C97.4083 23.9828 97.0318 24.4187 96.8337 24.9933L94.6938 24.0819C94.991 23.329 95.5458 22.6553 96.3978 22.0213C97.2498 21.3872 98.3594 21.0702 99.7463 21.0702C101.331 21.0702 102.659 21.5259 103.709 22.4572C104.759 23.3884 105.274 24.6961 105.274 26.3803V33.9096H103.035V32.1858H102.936C102.005 33.6123 100.638 34.3256 98.8547 34.3256ZM99.2312 32.1858C100.202 32.1858 101.074 31.8291 101.847 31.1158C102.639 30.4025 103.035 29.5505 103.035 28.5598C102.382 28.0248 101.391 27.7475 100.063 27.7475C98.934 27.7475 98.082 27.9852 97.5074 28.4806C96.9328 28.9759 96.6356 29.5505 96.6356 30.2044C96.6356 30.8186 96.8931 31.2941 97.4281 31.6508C97.9631 32.0074 98.5575 32.1858 99.2312 32.1858Z" fill="white"/>
<path d="M111.754 34.3257C110.367 34.3257 109.217 33.9889 108.326 33.3152C107.414 32.6416 106.76 31.7896 106.344 30.779L108.425 29.9072C109.079 31.4725 110.208 32.2453 111.793 32.2453C112.526 32.2453 113.121 32.0868 113.576 31.7697C114.032 31.4527 114.27 31.0168 114.27 30.5017C114.27 29.6893 113.695 29.1345 112.566 28.8571L110.05 28.2429C109.257 28.0447 108.504 27.6485 107.791 27.0937C107.077 26.5191 106.721 25.7662 106.721 24.7953C106.721 23.7055 107.216 22.8139 108.187 22.1204C109.158 21.4269 110.307 21.0901 111.654 21.0901C112.744 21.0901 113.735 21.3477 114.587 21.843C115.459 22.3384 116.073 23.0517 116.43 23.9829L114.409 24.8151C113.953 23.7253 113.002 23.1705 111.575 23.1705C110.882 23.1705 110.307 23.3092 109.832 23.6064C109.356 23.9037 109.118 24.2801 109.118 24.7755C109.118 25.4888 109.673 25.9643 110.763 26.2219L113.22 26.7965C114.389 27.0739 115.241 27.5296 115.815 28.1834C116.37 28.8373 116.648 29.5902 116.648 30.4224C116.648 31.532 116.192 32.4632 115.28 33.2162C114.369 33.9691 113.2 34.3257 111.754 34.3257Z" fill="white"/>
<path d="M123.939 34.3256C122.057 34.3256 120.531 33.6916 119.362 32.4433C118.193 31.1951 117.599 29.61 117.599 27.7078C117.599 25.9048 118.173 24.3395 119.303 23.0318C120.452 21.724 121.898 21.0702 123.681 21.0702C125.524 21.0702 126.99 21.6646 128.1 22.8733C129.209 24.0819 129.764 25.6868 129.764 27.688L129.744 28.1239H119.937C119.996 29.3722 120.432 30.3629 121.185 31.096C121.958 31.8291 122.849 32.1858 123.88 32.1858C125.544 32.1858 126.693 31.4725 127.288 30.0459L129.368 30.9177C128.972 31.8885 128.298 32.6811 127.367 33.335C126.436 33.9888 125.286 34.3256 123.939 34.3256ZM127.288 26.202C127.228 25.4887 126.911 24.815 126.317 24.181C125.722 23.5469 124.831 23.2101 123.642 23.2101C122.77 23.2101 122.037 23.4875 121.403 24.0225C120.769 24.5574 120.333 25.2905 120.095 26.202H127.288Z" fill="white"/>
</g>
<g opacity="0.54">
<path d="M42.4844 8.78569V0.265747H45.5556C46.2292 0.265747 46.8038 0.4837 47.2794 0.919604C47.7747 1.35551 48.0125 1.9103 48.0125 2.58397C48.0125 2.98024 47.9134 3.33689 47.6954 3.65391C47.4775 3.97093 47.2001 4.18889 46.8633 4.3474V4.38702C47.2794 4.52572 47.636 4.7833 47.8936 5.12014C48.171 5.47678 48.2899 5.87306 48.2899 6.32878C48.2899 7.02226 48.0323 7.59686 47.5171 8.0724C47.002 8.52811 46.4075 8.76588 45.7141 8.76588H42.4844V8.78569ZM43.5742 3.93131H45.5556C45.9716 3.93131 46.3085 3.79261 46.5462 3.51522C46.8038 3.23782 46.9227 2.94061 46.9227 2.62359C46.9227 2.30657 46.8038 2.00936 46.5661 1.73197C46.3283 1.45458 46.0113 1.33569 45.615 1.33569H43.5742V3.93131ZM43.5742 7.75538H45.7735C46.1896 7.75538 46.5264 7.61668 46.8038 7.31947C47.0614 7.02226 47.2001 6.70524 47.2001 6.34859C47.2001 5.99194 47.0614 5.67492 46.8038 5.39753C46.5264 5.10032 46.1896 4.96163 45.7537 4.96163H43.594V7.75538H43.5742Z" fill="black"/>
<path d="M54.7294 8.78559H53.6792V7.97323H53.6396C53.4811 8.25062 53.2235 8.48838 52.8867 8.68652C52.5498 8.88466 52.1932 8.98373 51.7969 8.98373C51.0638 8.98373 50.509 8.76578 50.1325 8.31006C49.7561 7.87416 49.5778 7.27974 49.5778 6.52682V2.96033H50.6675V6.34849C50.6675 7.43825 51.143 7.97323 52.1139 7.97323C52.5696 7.97323 52.9263 7.7949 53.2235 7.41844C53.5009 7.06179 53.6594 6.62589 53.6594 6.15035V2.96033H54.7492V8.78559H54.7294Z" fill="black"/>
<path d="M57.3844 1.51393C57.2259 1.67244 57.0476 1.73188 56.8296 1.73188C56.6117 1.73188 56.4333 1.65262 56.2748 1.51393C56.1163 1.35542 56.0569 1.17709 56.0569 0.95914C56.0569 0.741187 56.1361 0.562864 56.2748 0.404353C56.4333 0.245843 56.6117 0.186401 56.8296 0.186401C57.0476 0.186401 57.2259 0.265656 57.3844 0.404353C57.5429 0.562864 57.6024 0.741187 57.6024 0.95914C57.6024 1.17709 57.5231 1.35542 57.3844 1.51393ZM57.3844 8.7856H56.2946V2.96034H57.3844V8.7856Z" fill="black"/>
<path d="M60.0197 8.78569H58.9299V0.265747H60.0197V8.78569Z" fill="black"/>
<path d="M63.923 8.88479C63.3087 8.88479 62.853 8.72628 62.536 8.38944C62.219 8.07242 62.0605 7.59689 62.0605 7.00247V3.97096H61.0302V2.98027H62.0605V1.19702H63.1502V2.98027H64.5768V3.97096H63.1502V6.94303C63.1502 7.57707 63.4078 7.89409 63.9428 7.89409C64.1409 7.89409 64.2994 7.85447 64.4381 7.79503L64.8146 8.72628C64.557 8.84516 64.2598 8.88479 63.923 8.88479Z" fill="black"/>
<path d="M75.2961 8.78559H74.1866L72.7401 4.30767L71.2937 8.78559H70.1842L68.3018 2.96033H69.451L70.7389 7.359H70.7588L72.2052 2.96033H73.3346L74.781 7.359H74.8008L76.0887 2.96033H77.1983L75.2961 8.78559Z" fill="black"/>
<path d="M79.2193 1.51393C79.0607 1.67244 78.8824 1.73188 78.6645 1.73188C78.4465 1.73188 78.2682 1.65262 78.1097 1.51393C77.9512 1.35542 77.8917 1.17709 77.8917 0.95914C77.8917 0.741187 77.971 0.562864 78.1097 0.404353C78.2682 0.245843 78.4465 0.186401 78.6645 0.186401C78.8824 0.186401 79.0607 0.265656 79.2193 0.404353C79.3778 0.562864 79.4372 0.741187 79.4372 0.95914C79.4372 1.17709 79.3579 1.35542 79.2193 1.51393ZM79.2193 8.7856H78.1295V2.96034H79.2193V8.7856Z" fill="black"/>
<path d="M83.1622 8.88479C82.548 8.88479 82.0923 8.72628 81.7753 8.38944C81.4582 8.07242 81.2997 7.59689 81.2997 7.00247V3.97096H80.2694V2.98027H81.2997V1.19702H82.3895V2.98027H83.8161V3.97096H82.3697V6.94303C82.3697 7.57707 82.6273 7.89409 83.1622 7.89409C83.3604 7.89409 83.5189 7.85447 83.6576 7.79503L84.034 8.72628C83.7963 8.84516 83.5189 8.88479 83.1622 8.88479Z" fill="black"/>
<path d="M86.0749 0.285562V2.98024L86.0352 3.79261H86.0749C86.2334 3.51522 86.491 3.27745 86.8278 3.07931C87.1646 2.88117 87.5411 2.7821 87.9176 2.7821C88.6309 2.7821 89.1856 3.00006 89.5621 3.45578C89.9386 3.89168 90.1367 4.48609 90.1367 5.23902V8.80551H89.047V5.39753C89.047 4.32758 88.5714 3.7728 87.6005 3.7728C87.1448 3.7728 86.7882 3.95112 86.491 4.30777C86.2136 4.66442 86.0551 5.08051 86.0551 5.55604V8.78569H84.9653V0.265747H86.0749V0.285562Z" fill="black"/>
</g>
<defs>
<linearGradient id="paint0_linear_1784_97" x1="6.25555" y1="12.7033" x2="32.744" y2="39.1919" gradientUnits="userSpaceOnUse">
<stop stop-color="white" stop-opacity="0.1"/>
<stop offset="1" stop-color="white" stop-opacity="0"/>
</linearGradient>
</defs>
</svg>
