<svg width="25" height="30" viewBox="0 0 120 120" fill="none" xmlns="http://www.w3.org/2000/svg">
<g clip-path="url(#clip0_1_10)">
<path d="M120 61.4997C120 74.9037 116.184 86.9577 108.552 97.6617C100.926 108.366 91.068 115.77 78.984 119.88C77.58 120.15 76.548 119.964 75.9 119.322C75.5803 119.011 75.3284 118.637 75.1601 118.224C74.9918 117.811 74.9107 117.368 74.922 116.922V100.02C74.922 94.8417 73.566 91.0497 70.86 88.6497C73.5633 88.3784 76.2414 87.897 78.87 87.2097C81.234 86.5677 83.682 85.5297 86.208 84.0897C88.6365 82.7308 90.7847 80.9228 92.538 78.7617C94.23 76.6497 95.61 73.8477 96.678 70.3497C97.746 66.8517 98.28 62.8377 98.28 58.3017C98.28 51.8397 96.222 46.3377 92.112 41.8017C94.032 36.9417 93.828 31.4997 91.482 25.4637C90.024 24.9837 87.918 25.2837 85.158 26.3457C82.6545 27.2862 80.2473 28.4656 77.97 29.8677L75 31.7877C70.1218 30.3969 65.0725 29.6981 60 29.7117C54.9272 29.7001 49.8779 30.4009 45 31.7937C43.9149 31.0422 42.8084 30.3219 41.682 29.6337C40.302 28.7757 38.124 27.7497 35.154 26.5497C32.19 25.3497 29.946 24.9897 28.434 25.4697C26.148 31.4997 25.962 36.9417 27.894 41.8017C23.778 46.3377 21.714 51.8397 21.714 58.3017C21.714 62.8377 22.254 66.8397 23.322 70.3137C24.39 73.7817 25.758 76.5837 27.42 78.7197C29.1434 80.9033 31.2801 82.726 33.708 84.0837C36.234 85.5237 38.688 86.5677 41.052 87.2037C43.422 87.8517 46.092 88.3317 49.062 88.6497C46.98 90.5697 45.702 93.3237 45.234 96.8997C44.1153 97.4417 42.9346 97.8447 41.718 98.0997C40.2519 98.3875 38.7599 98.5222 37.266 98.5017C35.544 98.5017 33.846 97.9257 32.148 96.7797C30.456 95.6277 29.01 93.9597 27.81 91.7757C26.8726 90.124 25.5793 88.7016 24.024 87.6117C22.488 86.5437 21.198 85.9017 20.154 85.6917L18.594 85.4517C17.502 85.4517 16.746 85.5717 16.326 85.8117C15.906 86.0517 15.786 86.3517 15.936 86.7297C16.1125 87.1368 16.3491 87.515 16.638 87.8517C16.9377 88.212 17.2803 88.5344 17.658 88.8117L18.198 89.2077C19.35 89.7477 20.478 90.7617 21.6 92.2557C22.722 93.7497 23.544 95.1117 24.06 96.3357L24.84 98.1777C25.518 100.206 26.664 101.85 28.284 103.104C29.898 104.364 31.644 105.162 33.516 105.504C35.388 105.852 37.2 106.044 38.946 106.068C40.686 106.092 42.138 106.002 43.284 105.786L45.078 105.468C45.078 107.496 45.09 109.872 45.12 112.596L45.156 116.916C45.156 117.876 44.82 118.68 44.136 119.316C43.464 119.964 42.42 120.15 41.016 119.88C28.932 115.77 19.074 108.36 11.448 97.6617C3.816 86.9577 0 74.9037 0 61.4997C0 50.3397 2.682 40.0557 8.046 30.6297C13.2389 21.3846 20.7705 13.6668 29.886 8.24971C38.973 2.77959 49.3939 -0.0753116 60 -0.000286236C70.6082 -0.0764182 81.0313 2.77852 90.12 8.24971C99.2333 13.6677 106.763 21.3854 111.954 30.6297C117.318 40.0497 120 50.3457 120 61.4997Z" fill="black"/>
</g>
<defs>
<clipPath id="clip0_1_10">
<rect width="120" height="120" fill="white"/>
</clipPath>
</defs>
</svg>
