<svg width="243" height="88" viewBox="0 0 243 88" fill="none" xmlns="http://www.w3.org/2000/svg">
<mask id="mask0_44_93" style="mask-type:luminance" maskUnits="userSpaceOnUse" x="0" y="0" width="243" height="88">
<path d="M0.465332 0.329163H242.4V87.2492H0.465332V0.329163Z" fill="white"/>
</mask>
<g mask="url(#mask0_44_93)">
<path d="M163.251 0.503221C163.02 0.504049 162.804 0.56119 162.603 0.676299C162.505 0.734268 162.415 0.803002 162.335 0.883331C162.255 0.964487 162.187 1.05392 162.13 1.15247C162.073 1.25102 162.03 1.35536 162 1.4655C161.971 1.57482 161.955 1.68744 161.955 1.80089V34.8803C161.955 35.205 161.803 35.4956 161.522 35.6588C161.382 35.7408 161.23 35.7813 161.068 35.7813C160.906 35.7813 160.755 35.7408 160.614 35.6588L155.212 32.5459C155.015 32.4316 154.807 32.3455 154.586 32.2858C154.367 32.227 154.143 32.1972 153.916 32.1972C153.688 32.1972 153.464 32.227 153.244 32.2858C153.024 32.3455 152.816 32.4316 152.619 32.5459L131.054 44.9992C130.248 45.4638 129.757 46.3598 129.757 47.2906V72.1973C129.756 72.4251 129.786 72.6495 129.844 72.8698C129.903 73.0892 129.989 73.2987 130.103 73.4958C130.217 73.6929 130.355 73.8726 130.515 74.0333C130.677 74.1948 130.856 74.3322 131.054 74.4457L152.62 86.899C152.817 87.0141 153.025 87.1003 153.246 87.1599C153.465 87.2187 153.689 87.2485 153.916 87.2485C154.144 87.2485 154.368 87.2187 154.588 87.1599C154.807 87.1003 155.016 87.0141 155.213 86.899L176.78 74.4457C176.977 74.3322 177.156 74.1948 177.318 74.0333C177.479 73.8726 177.616 73.6929 177.73 73.4958C177.844 73.2987 177.93 73.0892 177.989 72.8698C178.048 72.6495 178.077 72.4251 178.077 72.1973V10.1028C178.077 9.15796 177.561 8.27186 176.737 7.81143L163.9 0.629924C163.698 0.518127 163.475 0.498252 163.252 0.499909L163.251 0.503221ZM24.5152 31.5935C24.1036 31.6109 23.7177 31.6821 23.3484 31.8966L1.78236 44.35C1.58444 44.4634 1.40556 44.6009 1.24408 44.7615C1.0826 44.923 0.945127 45.1019 0.831674 45.299C0.717392 45.4969 0.631267 45.7056 0.573299 45.9259C0.514502 46.1462 0.485517 46.3706 0.486345 46.5983L0.530236 80.0248C0.530236 80.4902 0.770392 80.9216 1.17866 81.1485C1.57947 81.3887 2.07635 81.3887 2.47467 81.1485L15.2675 73.7973C16.0791 73.3161 16.6075 72.4772 16.6075 71.5497V55.9379C16.6075 55.0063 17.0969 54.1525 17.9051 53.6895L23.3509 50.5336C23.7517 50.3 24.1831 50.1849 24.6469 50.1874C25.1106 50.1841 25.5429 50.3 25.9437 50.5336L31.387 53.6879C32.1944 54.1508 32.6838 55.0054 32.6838 55.9354V71.5456C32.6838 72.4747 33.2246 73.3186 34.0229 73.7939L46.8158 81.1452C47.2183 81.3854 47.7143 81.3854 48.1126 81.1452C48.5085 80.9166 48.7611 80.4852 48.7611 80.0214L48.8041 46.5958C48.8058 46.3673 48.7768 46.1437 48.7188 45.9226C48.66 45.7023 48.5747 45.4936 48.4605 45.2957C48.3462 45.0986 48.2087 44.9189 48.0472 44.7582C47.8857 44.5976 47.706 44.4601 47.5081 44.3475L25.9421 31.8983C25.5777 31.6846 25.1893 31.6126 24.7753 31.5952H24.5169L24.5152 31.5935ZM218.311 31.8966C217.847 31.8958 217.415 32.0109 217.014 32.2428L195.447 44.6969C194.642 45.1623 194.149 46.0137 194.149 46.9445V71.8512C194.149 72.7878 194.677 73.6358 195.489 74.0987L216.883 86.2986C217.672 86.75 218.637 86.7839 219.433 86.3409L232.399 79.1196C232.809 78.8911 233.088 78.4646 233.089 77.9958C233.09 77.5271 232.847 77.1048 232.44 76.8721L210.743 64.4179C210.337 64.186 210.052 63.7165 210.052 63.2503V55.4617C210.052 54.9963 210.341 54.5698 210.743 54.338L217.486 50.4458C217.887 50.2139 218.379 50.2139 218.783 50.4458L225.541 54.338C225.639 54.3943 225.729 54.463 225.81 54.5433C225.89 54.6237 225.959 54.7139 226.016 54.8125C226.073 54.911 226.116 55.0154 226.145 55.1255C226.174 55.2357 226.189 55.3475 226.189 55.4617V61.6015C226.189 61.7157 226.203 61.8275 226.232 61.9377C226.262 62.0478 226.305 62.1522 226.362 62.2507C226.419 62.3501 226.487 62.4395 226.568 62.5198C226.649 62.6002 226.738 62.6689 226.837 62.7261C227.241 62.9588 227.731 62.9604 228.135 62.7261L241.056 55.2017C241.857 54.7346 242.353 53.8808 242.353 52.9533V46.9436C242.353 46.7159 242.324 46.4923 242.265 46.272C242.206 46.0518 242.119 45.8431 242.006 45.646C241.891 45.4481 241.754 45.2692 241.593 45.1077C241.433 44.947 241.253 44.8096 241.056 44.6953L219.619 32.2419C219.218 32.0092 218.786 31.8941 218.322 31.8958L218.311 31.8966ZM153.826 50.4913C153.949 50.4905 154.064 50.5195 154.172 50.5775L161.562 54.858C161.763 54.974 161.909 55.1885 161.909 55.4203V63.9815C161.909 64.2142 161.765 64.4287 161.562 64.5438L154.172 68.8244C153.971 68.9387 153.725 68.9387 153.523 68.8244L146.133 64.5438C145.932 64.4278 145.787 64.2134 145.787 63.9815V55.4228C145.787 55.1901 145.932 54.9781 146.133 54.8605L153.523 50.5799C153.624 50.522 153.713 50.4946 153.826 50.4946V50.4913Z" fill="white"/>
</g>
</svg>
