<svg width="200" height="200" viewBox="0 0 100 100" fill="none" xmlns="http://www.w3.org/2000/svg">
<path d="M49.8868 36.3312C45.9819 36.3312 43.1664 38.8779 43.1664 42.6979C43.1664 46.5179 46.3356 49.0646 50.2405 49.0646C52.5997 49.0646 54.6795 48.1308 55.967 46.5568L53.2612 44.9935C52.5467 45.7752 51.4608 46.2314 50.2405 46.2314C48.5463 46.2314 47.1067 45.3472 46.5726 43.9323H56.4834C56.5613 43.5362 56.6072 43.1259 56.6072 42.6944C56.6072 38.8779 53.7917 36.3312 49.8868 36.3312ZM46.5407 41.4599C46.9829 40.0486 48.1926 39.1608 49.8833 39.1608C51.5775 39.1608 52.7872 40.0486 53.2258 41.4599H46.5407ZM87.974 36.3312C84.069 36.3312 81.2535 38.8779 81.2535 42.6979C81.2535 46.5179 84.4228 49.0646 88.3277 49.0646C90.6869 49.0646 92.7667 48.1308 94.0542 46.5568L91.3483 44.9935C90.6338 45.7752 89.548 46.2314 88.3277 46.2314C86.6334 46.2314 85.1938 45.3472 84.6597 43.9323H94.5706C94.6484 43.5362 94.6944 43.1259 94.6944 42.6944C94.6944 38.8779 91.8789 36.3312 87.974 36.3312ZM84.6314 41.4599C85.0736 40.0486 86.2832 39.1608 87.974 39.1608C89.6682 39.1608 90.8779 40.0486 91.3165 41.4599H84.6314ZM70.8263 42.6979C70.8263 44.8201 72.2128 46.235 74.3633 46.235C75.8206 46.235 76.9136 45.5735 77.4759 44.4947L80.1924 46.0617C79.0676 47.9363 76.9595 49.0646 74.3633 49.0646C70.4549 49.0646 67.6429 46.5179 67.6429 42.6979C67.6429 38.8779 70.4584 36.3312 74.3633 36.3312C76.9595 36.3312 79.0641 37.4595 80.1924 39.3342L77.4759 40.9011C76.9136 39.8223 75.8206 39.1608 74.3633 39.1608C72.2163 39.1608 70.8263 40.5757 70.8263 42.6979ZM100 32.4404V48.7109H96.8166V32.4404H100ZM13.0695 30.6719L26.1389 53.3091H0L13.0695 30.6719ZM45.7449 32.4404L35.9437 49.4183L26.1425 32.4404H29.8175L35.9437 43.0516L42.0699 32.4404H45.7449ZM66.5818 36.6849V40.1123C66.2281 40.0097 65.8531 39.939 65.4499 39.939C63.3949 39.939 61.9128 41.3538 61.9128 43.4761V48.7109H58.7295V36.6849H61.9128V39.939C61.9128 38.1422 64.0033 36.6849 66.5818 36.6849Z" fill="white"/>
</svg>
